<mxfile host="Electron" modified="2024-04-07T15:43:12.584Z" agent="Mozilla/5.0 (Windows NT 10.0; Win64; x64) AppleWebKit/537.36 (KHTML, like Gecko) draw.io/24.1.0 Chrome/120.0.6099.109 Electron/28.1.0 Safari/537.36" etag="smA5NxEFCRsY1y4Rtuit" version="24.1.0" type="device">
  <diagram name="Page-1" id="2YBvvXClWsGukQMizWep">
    <mxGraphModel dx="1050" dy="621" grid="1" gridSize="10" guides="1" tooltips="1" connect="1" arrows="1" fold="1" page="1" pageScale="1" pageWidth="850" pageHeight="1100" math="0" shadow="0">
      <root>
        <mxCell id="0" />
        <mxCell id="1" parent="0" />
        <mxCell id="Qhqzmik02JmOhl7yBf_o-1" value="&lt;span style=&quot;background-color: rgb(255, 204, 204);&quot;&gt;Xem thông tin học viên&lt;/span&gt;" style="shape=umlFrame;whiteSpace=wrap;html=1;pointerEvents=0;width=160;height=30;" parent="1" vertex="1">
          <mxGeometry x="40" y="40" width="690" height="600" as="geometry" />
        </mxCell>
        <mxCell id="Qhqzmik02JmOhl7yBf_o-6" value="&lt;font style=&quot;font-size: 10px;&quot;&gt;&amp;nbsp; &amp;nbsp;Giao diện&lt;/font&gt;" style="shape=umlLifeline;perimeter=lifelinePerimeter;whiteSpace=wrap;html=1;container=1;dropTarget=0;collapsible=0;recursiveResize=0;outlineConnect=0;portConstraint=eastwest;newEdgeStyle={&quot;curved&quot;:0,&quot;rounded&quot;:0};participant=umlBoundary;size=50;" parent="1" vertex="1">
          <mxGeometry x="260" y="100" width="60" height="460" as="geometry" />
        </mxCell>
        <mxCell id="Qhqzmik02JmOhl7yBf_o-10" value="" style="html=1;points=[[0,0,0,0,5],[0,1,0,0,-5],[1,0,0,0,5],[1,1,0,0,-5]];perimeter=orthogonalPerimeter;outlineConnect=0;targetShapes=umlLifeline;portConstraint=eastwest;newEdgeStyle={&quot;curved&quot;:0,&quot;rounded&quot;:0};" parent="Qhqzmik02JmOhl7yBf_o-6" vertex="1">
          <mxGeometry x="25" y="100" width="10" height="310" as="geometry" />
        </mxCell>
        <mxCell id="Qhqzmik02JmOhl7yBf_o-7" value="" style="shape=umlLifeline;perimeter=lifelinePerimeter;whiteSpace=wrap;html=1;container=1;dropTarget=0;collapsible=0;recursiveResize=0;outlineConnect=0;portConstraint=eastwest;newEdgeStyle={&quot;curved&quot;:0,&quot;rounded&quot;:0};participant=umlActor;size=45;" parent="1" vertex="1">
          <mxGeometry x="100" y="105" width="20" height="455" as="geometry" />
        </mxCell>
        <mxCell id="Q2UFI75gUtYqtLuymwrZ-13" value="" style="html=1;points=[[0,0,0,0,5],[0,1,0,0,-5],[1,0,0,0,5],[1,1,0,0,-5]];perimeter=orthogonalPerimeter;outlineConnect=0;targetShapes=umlLifeline;portConstraint=eastwest;newEdgeStyle={&quot;curved&quot;:0,&quot;rounded&quot;:0};" vertex="1" parent="Qhqzmik02JmOhl7yBf_o-7">
          <mxGeometry x="5" y="240" width="10" height="30" as="geometry" />
        </mxCell>
        <mxCell id="Q2UFI75gUtYqtLuymwrZ-14" value="" style="html=1;points=[[0,0,0,0,5],[0,1,0,0,-5],[1,0,0,0,5],[1,1,0,0,-5]];perimeter=orthogonalPerimeter;outlineConnect=0;targetShapes=umlLifeline;portConstraint=eastwest;newEdgeStyle={&quot;curved&quot;:0,&quot;rounded&quot;:0};" vertex="1" parent="Qhqzmik02JmOhl7yBf_o-7">
          <mxGeometry x="5" y="295" width="10" height="115" as="geometry" />
        </mxCell>
        <mxCell id="Qhqzmik02JmOhl7yBf_o-8" value="&lt;font style=&quot;font-size: 11px;&quot;&gt;Hệ thống&lt;/font&gt;" style="shape=umlLifeline;perimeter=lifelinePerimeter;whiteSpace=wrap;html=1;container=1;dropTarget=0;collapsible=0;recursiveResize=0;outlineConnect=0;portConstraint=eastwest;newEdgeStyle={&quot;curved&quot;:0,&quot;rounded&quot;:0};participant=umlControl;size=50;" parent="1" vertex="1">
          <mxGeometry x="460" y="100" width="50" height="460" as="geometry" />
        </mxCell>
        <mxCell id="Qhqzmik02JmOhl7yBf_o-12" value="" style="html=1;points=[[0,0,0,0,5],[0,1,0,0,-5],[1,0,0,0,5],[1,1,0,0,-5]];perimeter=orthogonalPerimeter;outlineConnect=0;targetShapes=umlLifeline;portConstraint=eastwest;newEdgeStyle={&quot;curved&quot;:0,&quot;rounded&quot;:0};" parent="Qhqzmik02JmOhl7yBf_o-8" vertex="1">
          <mxGeometry x="20.17" y="100" width="10" height="40" as="geometry" />
        </mxCell>
        <mxCell id="Qhqzmik02JmOhl7yBf_o-9" value="&lt;font style=&quot;font-size: 10px;&quot;&gt;Database&lt;/font&gt;" style="shape=umlLifeline;perimeter=lifelinePerimeter;whiteSpace=wrap;html=1;container=1;dropTarget=0;collapsible=0;recursiveResize=0;outlineConnect=0;portConstraint=eastwest;newEdgeStyle={&quot;curved&quot;:0,&quot;rounded&quot;:0};participant=umlEntity;size=50;" parent="1" vertex="1">
          <mxGeometry x="630" y="100" width="50" height="460" as="geometry" />
        </mxCell>
        <mxCell id="Qhqzmik02JmOhl7yBf_o-14" value="&lt;font color=&quot;#ff0303&quot;&gt;&lt;b&gt;Chưa đăng nhập&lt;/b&gt;&lt;/font&gt;" style="shape=umlFrame;whiteSpace=wrap;html=1;pointerEvents=0;width=120;height=20;" parent="1" vertex="1">
          <mxGeometry x="80" y="160" width="610" height="440" as="geometry" />
        </mxCell>
        <mxCell id="Qhqzmik02JmOhl7yBf_o-15" value="Chưa đăng nhập" style="html=1;verticalAlign=bottom;endArrow=open;dashed=1;endSize=8;curved=0;rounded=0;" parent="1" edge="1">
          <mxGeometry relative="1" as="geometry">
            <mxPoint x="480.17" y="220" as="sourcePoint" />
            <mxPoint x="295.17" y="220" as="targetPoint" />
          </mxGeometry>
        </mxCell>
        <mxCell id="Qhqzmik02JmOhl7yBf_o-16" value="" style="html=1;verticalAlign=bottom;endArrow=open;dashed=1;endSize=8;curved=0;rounded=0;" parent="1" edge="1" source="Q2UFI75gUtYqtLuymwrZ-10">
          <mxGeometry relative="1" as="geometry">
            <mxPoint x="285" y="240" as="sourcePoint" />
            <mxPoint x="109.66666666666663" y="240" as="targetPoint" />
          </mxGeometry>
        </mxCell>
        <mxCell id="Qhqzmik02JmOhl7yBf_o-17" value="&lt;b&gt;&lt;font color=&quot;#00ff00&quot;&gt;Đã đăng nhập&lt;/font&gt;&lt;/b&gt;" style="shape=umlFrame;whiteSpace=wrap;html=1;pointerEvents=0;width=120;height=20;" parent="1" vertex="1">
          <mxGeometry x="80" y="270" width="610" height="330" as="geometry" />
        </mxCell>
        <mxCell id="Qhqzmik02JmOhl7yBf_o-18" value="" style="html=1;points=[[0,0,0,0,5],[0,1,0,0,-5],[1,0,0,0,5],[1,1,0,0,-5]];perimeter=orthogonalPerimeter;outlineConnect=0;targetShapes=umlLifeline;portConstraint=eastwest;newEdgeStyle={&quot;curved&quot;:0,&quot;rounded&quot;:0};" parent="1" vertex="1">
          <mxGeometry x="650.17" y="300" width="10" height="40" as="geometry" />
        </mxCell>
        <mxCell id="Qhqzmik02JmOhl7yBf_o-19" value="" style="html=1;points=[[0,0,0,0,5],[0,1,0,0,-5],[1,0,0,0,5],[1,1,0,0,-5]];perimeter=orthogonalPerimeter;outlineConnect=0;targetShapes=umlLifeline;portConstraint=eastwest;newEdgeStyle={&quot;curved&quot;:0,&quot;rounded&quot;:0};" parent="1" vertex="1">
          <mxGeometry x="480.17" y="310" width="10" height="60" as="geometry" />
        </mxCell>
        <mxCell id="Qhqzmik02JmOhl7yBf_o-20" value="Danh sách học viên" style="html=1;verticalAlign=bottom;endArrow=open;dashed=1;endSize=8;curved=0;rounded=0;" parent="1" edge="1">
          <mxGeometry relative="1" as="geometry">
            <mxPoint x="650.17" y="322.08" as="sourcePoint" />
            <mxPoint x="490.17" y="322.08" as="targetPoint" />
          </mxGeometry>
        </mxCell>
        <mxCell id="Qhqzmik02JmOhl7yBf_o-21" value="Danh sách học viên" style="html=1;verticalAlign=bottom;endArrow=open;dashed=1;endSize=8;curved=0;rounded=0;" parent="1" edge="1">
          <mxGeometry relative="1" as="geometry">
            <mxPoint x="480.17" y="340" as="sourcePoint" />
            <mxPoint x="295.17" y="340" as="targetPoint" />
          </mxGeometry>
        </mxCell>
        <mxCell id="Qhqzmik02JmOhl7yBf_o-22" value="Hiển thị danh sách học viên" style="html=1;verticalAlign=bottom;endArrow=open;dashed=1;endSize=8;curved=0;rounded=0;" parent="1" edge="1" target="Q2UFI75gUtYqtLuymwrZ-13">
          <mxGeometry relative="1" as="geometry">
            <mxPoint x="285.17" y="360" as="sourcePoint" />
            <mxPoint x="150" y="360" as="targetPoint" />
          </mxGeometry>
        </mxCell>
        <mxCell id="Qhqzmik02JmOhl7yBf_o-23" value="Nhập thông tin học viên" style="html=1;verticalAlign=bottom;endArrow=block;curved=0;rounded=0;" parent="1" edge="1" source="Q2UFI75gUtYqtLuymwrZ-14">
          <mxGeometry x="-0.001" width="80" relative="1" as="geometry">
            <mxPoint x="160" y="410" as="sourcePoint" />
            <mxPoint x="285.17" y="410" as="targetPoint" />
            <mxPoint as="offset" />
          </mxGeometry>
        </mxCell>
        <mxCell id="Qhqzmik02JmOhl7yBf_o-24" value="Xác nhận thông tin" style="html=1;verticalAlign=bottom;endArrow=block;curved=0;rounded=0;" parent="1" edge="1">
          <mxGeometry width="80" relative="1" as="geometry">
            <mxPoint x="295.17" y="430" as="sourcePoint" />
            <mxPoint x="480.17" y="430" as="targetPoint" />
            <mxPoint as="offset" />
          </mxGeometry>
        </mxCell>
        <mxCell id="Qhqzmik02JmOhl7yBf_o-27" value="" style="html=1;points=[[0,0,0,0,5],[0,1,0,0,-5],[1,0,0,0,5],[1,1,0,0,-5]];perimeter=orthogonalPerimeter;outlineConnect=0;targetShapes=umlLifeline;portConstraint=eastwest;newEdgeStyle={&quot;curved&quot;:0,&quot;rounded&quot;:0};" parent="1" vertex="1">
          <mxGeometry x="480.17" y="420" width="10" height="80" as="geometry" />
        </mxCell>
        <mxCell id="sUTgt6oVyV8x45Rty2s4-1" value="Thông tin học viên" style="html=1;verticalAlign=bottom;endArrow=open;dashed=1;endSize=8;curved=0;rounded=0;" parent="1" edge="1">
          <mxGeometry relative="1" as="geometry">
            <mxPoint x="480.17" y="489.9999999999999" as="sourcePoint" />
            <mxPoint x="295.17" y="489.9999999999999" as="targetPoint" />
          </mxGeometry>
        </mxCell>
        <mxCell id="sUTgt6oVyV8x45Rty2s4-2" value="HIển thị thông tin học viên" style="html=1;verticalAlign=bottom;endArrow=open;dashed=1;endSize=8;curved=0;rounded=0;" parent="1" edge="1" target="Q2UFI75gUtYqtLuymwrZ-14">
          <mxGeometry x="0.0031" relative="1" as="geometry">
            <mxPoint x="285.5" y="500" as="sourcePoint" />
            <mxPoint x="160" y="500" as="targetPoint" />
            <mxPoint as="offset" />
          </mxGeometry>
        </mxCell>
        <mxCell id="zZLjmVzufuu3xmkx4Qme-1" value="&lt;span style=&quot;font-weight: normal;&quot;&gt;Nhân viên&lt;/span&gt;" style="text;align=center;fontStyle=1;verticalAlign=middle;spacingLeft=3;spacingRight=3;strokeColor=none;rotatable=0;points=[[0,0.5],[1,0.5]];portConstraint=eastwest;html=1;" parent="1" vertex="1">
          <mxGeometry x="70" y="79" width="80" height="26" as="geometry" />
        </mxCell>
        <mxCell id="Q2UFI75gUtYqtLuymwrZ-3" value="" style="html=1;points=[[0,0,0,0,5],[0,1,0,0,-5],[1,0,0,0,5],[1,1,0,0,-5]];perimeter=orthogonalPerimeter;outlineConnect=0;targetShapes=umlLifeline;portConstraint=eastwest;newEdgeStyle={&quot;curved&quot;:0,&quot;rounded&quot;:0};" vertex="1" parent="1">
          <mxGeometry x="650.17" y="420" width="10" height="80" as="geometry" />
        </mxCell>
        <mxCell id="Q2UFI75gUtYqtLuymwrZ-4" value="Kiểm tra thông tin" style="html=1;verticalAlign=bottom;endArrow=block;curved=0;rounded=0;" edge="1" parent="1">
          <mxGeometry width="80" relative="1" as="geometry">
            <mxPoint x="490.1700000000001" y="440" as="sourcePoint" />
            <mxPoint x="650.1700000000001" y="440" as="targetPoint" />
          </mxGeometry>
        </mxCell>
        <mxCell id="Q2UFI75gUtYqtLuymwrZ-5" value="Thông tin học viên" style="html=1;verticalAlign=bottom;endArrow=open;dashed=1;endSize=8;curved=0;rounded=0;" edge="1" parent="1">
          <mxGeometry relative="1" as="geometry">
            <mxPoint x="650.1700000000001" y="479" as="sourcePoint" />
            <mxPoint x="490.1700000000001" y="479" as="targetPoint" />
          </mxGeometry>
        </mxCell>
        <mxCell id="Q2UFI75gUtYqtLuymwrZ-6" value="" style="ellipse;html=1;shape=endState;fillColor=#000000;strokeColor=#ff0000;" vertex="1" parent="1">
          <mxGeometry x="275" y="550" width="30" height="30" as="geometry" />
        </mxCell>
        <mxCell id="Q2UFI75gUtYqtLuymwrZ-7" value="" style="ellipse;html=1;shape=endState;fillColor=#000000;strokeColor=#ff0000;" vertex="1" parent="1">
          <mxGeometry x="95" y="550" width="30" height="30" as="geometry" />
        </mxCell>
        <mxCell id="Q2UFI75gUtYqtLuymwrZ-8" value="" style="ellipse;html=1;shape=endState;fillColor=#000000;strokeColor=#ff0000;" vertex="1" parent="1">
          <mxGeometry x="470" y="550" width="30" height="30" as="geometry" />
        </mxCell>
        <mxCell id="Q2UFI75gUtYqtLuymwrZ-9" value="" style="ellipse;html=1;shape=endState;fillColor=#000000;strokeColor=#ff0000;" vertex="1" parent="1">
          <mxGeometry x="640" y="550" width="30" height="30" as="geometry" />
        </mxCell>
        <mxCell id="Q2UFI75gUtYqtLuymwrZ-10" value="" style="html=1;points=[[0,0,0,0,5],[0,1,0,0,-5],[1,0,0,0,5],[1,1,0,0,-5]];perimeter=orthogonalPerimeter;outlineConnect=0;targetShapes=umlLifeline;portConstraint=eastwest;newEdgeStyle={&quot;curved&quot;:0,&quot;rounded&quot;:0};" vertex="1" parent="1">
          <mxGeometry x="105" y="220" width="10" height="40" as="geometry" />
        </mxCell>
        <mxCell id="Q2UFI75gUtYqtLuymwrZ-12" value="Đưa đến trang đăng nhập" style="html=1;verticalAlign=bottom;endArrow=open;dashed=1;endSize=8;curved=0;rounded=0;" edge="1" parent="1">
          <mxGeometry relative="1" as="geometry">
            <mxPoint x="285" y="239.57999999999998" as="sourcePoint" />
            <mxPoint x="115" y="239.57999999999998" as="targetPoint" />
          </mxGeometry>
        </mxCell>
      </root>
    </mxGraphModel>
  </diagram>
</mxfile>
